<svg xmlns="http://www.w3.org/2000/svg" preserveAspectRatio="none"  viewBox="0 0 296.889 374.462"><g transform="translate(-1398.683 -132.612)"><path d="M55-102.388s6.125,35.081,19.688,70C88.614,3.467,110,39.508,110,55A55,55,0,0,1,0,55C0,40.086,22.656,2.836,36.226-32.388A361.546,361.546,0,0,0,55-102.388Z" transform="translate(1503 317)" fill="#fbfcff"/><path d="M25.5-102.388a193.736,193.736,0,0,0,9.127,32.452C41.082-53.314,51-36.605,51-29.423a25.5,25.5,0,0,1-25.5,25.5A25.5,25.5,0,0,1,0-29.423c0-6.914,10.5-24.183,16.794-40.513A167.612,167.612,0,0,0,25.5-102.388Z" transform="translate(1639 235)" fill="#d9ecff"/><path d="M14.575-102.388a110.74,110.74,0,0,0,5.217,18.55c3.69,9.5,9.357,19.052,9.357,23.157A14.575,14.575,0,0,1,14.575-46.107,14.575,14.575,0,0,1,0-60.681C0-64.634,6-74.5,9.6-83.839A95.808,95.808,0,0,0,14.575-102.388Z" transform="translate(1447.851 312.107)" fill="rgba(222,232,255,0.8)"/><path d="M14.575-102.388a110.74,110.74,0,0,0,5.217,18.55c3.69,9.5,9.357,19.052,9.357,23.157A14.575,14.575,0,0,1,14.575-46.107,14.575,14.575,0,0,1,0-60.681C0-64.634,6-74.5,9.6-83.839A95.808,95.808,0,0,0,14.575-102.388Z" transform="translate(1620.851 510.107)" fill="rgba(235,241,255,0.64)"/><path d="M12.861-102.388a97.717,97.717,0,0,0,4.6,16.368c3.256,8.384,8.257,16.812,8.257,20.434A12.861,12.861,0,0,1,12.861-52.725,12.861,12.861,0,0,1,0-65.586c0-3.487,5.3-12.2,8.471-20.434A84.54,84.54,0,0,0,12.861-102.388Z" transform="translate(1669.851 398.107)" fill="rgba(229,237,254,0.77)"/><path d="M31.871-102.388A242.161,242.161,0,0,0,43.28-61.825c8.07,20.777,20.462,41.662,20.462,50.639A31.871,31.871,0,0,1,31.871,20.685,31.871,31.871,0,0,1,0-11.186c0-8.643,13.128-30.228,20.992-50.639A209.507,209.507,0,0,0,31.871-102.388Z" transform="translate(1398.683 486.388)" fill="rgba(235,241,255,0.94)"/></g></svg>