<svg xmlns="http://www.w3.org/2000/svg" xmlns:xlink="http://www.w3.org/1999/xlink" preserveAspectRatio="none" viewBox="0 0 1920 152"><defs><clipPath id="a"><rect width="1920" height="152" transform="translate(-4 507.587)" fill="#fff" opacity="0.44"/></clipPath></defs><g transform="translate(4 -507.587)"><g clip-path="url(#a)"><path d="M-4001.4-1714.7s190.125-98.8,358.8-111.8,339.625,117.325,518.7,111.8,328.25-61.425,533-58.5,399.1,55.9,535.6,31.2" transform="translate(3980 2340)" fill="none" stroke="#a4bae9" stroke-width="1"/><path d="M-4015.96-1913.809s262.769-132.524,524.019-136.7,302.64,119.993,520.981,119.993S-2686.716-2049.447-2501-2034s295,103.483,455.591,83.062" transform="translate(3965.409 2573.21)" fill="none" stroke="#ebf0fb" stroke-width="5"/><path d="M-3998.543-1766.051s68.022,33.8,300.82,25.35,366.73-65.91,630.371-59.15,299.975,81.965,537.42,89.57,474.89-76.05,474.89-76.05" transform="translate(3980 2340)" fill="none" stroke="rgba(20,93,255,0.21)" stroke-width="1"/></g></g></svg>